<svg id="Layer_1" data-name="Layer 1" xmlns="http://www.w3.org/2000/svg" xmlns:xlink="http://www.w3.org/1999/xlink" viewBox="0 0 1163.64 1270.34"><defs><linearGradient id="Sfumatura_senza_nome_33" x1="812.81" y1="-1094.01" x2="1057.81" y2="-1094.01" gradientUnits="userSpaceOnUse"><stop offset="0" stop-color="#41a1ff"/><stop offset="1" stop-color="#416eff"/></linearGradient><linearGradient id="Sfumatura_senza_nome_33-2" x1="690.26" y1="-965.88" x2="690.26" y2="-1222.15" xlink:href="#Sfumatura_senza_nome_33"/><linearGradient id="Sfumatura_senza_nome_3" x1="1274.26" y1="-1007.9" x2="1092.23" y2="-1007.9" gradientUnits="userSpaceOnUse"><stop offset="0" stop-color="#41a1ff"/><stop offset="1" stop-color="#4189ff"/></linearGradient><linearGradient id="Sfumatura_senza_nome_3-2" x1="341.04" y1="-1007.9" x2="523.06" y2="-1007.9" xlink:href="#Sfumatura_senza_nome_3"/><linearGradient id="Sfumatura_senza_nome_3-3" x1="222.04" y1="-744.42" x2="781.74" y2="-744.42" xlink:href="#Sfumatura_senza_nome_3"/><linearGradient id="Sfumatura_senza_nome_3-4" x1="1385.68" y1="-744.42" x2="825.98" y2="-744.42" xlink:href="#Sfumatura_senza_nome_3"/><linearGradient id="Sfumatura_senza_nome_3-5" x1="345.68" y1="203.33" x2="590.77" y2="203.33" xlink:href="#Sfumatura_senza_nome_3"/><linearGradient id="Sfumatura_senza_nome_3-6" x1="590.77" y1="203.33" x2="835.77" y2="203.33" xlink:href="#Sfumatura_senza_nome_3"/><linearGradient id="Sfumatura_senza_nome_3-7" x1="590.77" y1="625.74" x2="835.96" y2="625.74" xlink:href="#Sfumatura_senza_nome_3"/><linearGradient id="Sfumatura_senza_nome_3-8" x1="345.68" y1="625.74" x2="590.77" y2="625.74" xlink:href="#Sfumatura_senza_nome_3"/><clipPath id="clip-path" transform="translate(-222.04 1517.34)"><polygon points="1057.81 -1110.68 812.81 -965.88 812.81 -1222.15 1057.81 -1110.68" style="fill:url(#Sfumatura_senza_nome_33)"/></clipPath><linearGradient id="Sfumatura_senza_nome_43" x1="593" y1="-1099.13" x2="1032" y2="-1099.13" gradientUnits="userSpaceOnUse"><stop offset="0" stop-color="#2283ff"/><stop offset="0.08" stop-color="#2b88ff" stop-opacity="0.98"/><stop offset="0.17" stop-color="#4697ff" stop-opacity="0.92"/><stop offset="0.28" stop-color="#73b0ff" stop-opacity="0.82"/><stop offset="0.4" stop-color="#b1d3ff" stop-opacity="0.68"/><stop offset="0.51" stop-color="#fff" stop-opacity="0.5"/><stop offset="0.54" stop-color="#f2f7ff" stop-opacity="0.53"/><stop offset="0.68" stop-color="#9bc2ff" stop-opacity="0.73"/><stop offset="0.81" stop-color="#5c9cff" stop-opacity="0.88"/><stop offset="0.92" stop-color="#3685ff" stop-opacity="0.97"/><stop offset="0.98" stop-color="#287cff"/></linearGradient><clipPath id="clip-path-2" transform="translate(-222.04 1517.34)"><polygon points="567.71 -1110.68 812.81 -1222.15 812.81 -965.88 567.71 -1110.68" style="fill:url(#Sfumatura_senza_nome_33-2)"/></clipPath></defs><path d="M1122.82-821.06c-17.37-66.84-60.3-213.5,2.2-221.72,14.63,30.89,23.13,115.54,44.38,155.16C1154.37-863.8,1139.14-840.71,1122.82-821.06Zm98.69-146.85c-14-50.72-38.11-136.32-39.77-172.84-18.91-20.63-51.62,11.17-44.69,60.15,5.67,40.06,38,166.72,40.48,177,5-7.57,10.61-15.43,16.23-22.86C1202.83-940.73,1212-954.75,1221.51-967.91Zm52.75-53.72c-9.64-38.74-34.08-138.46-34.08-165.53-7.74-16.33-47.27-8.39-39.53,44.4,6.08,41.58,25.85,127.44,35.08,156.18C1252.54-1007.35,1265-1017.61,1274.26-1021.63Z" transform="translate(-222.04 1517.34)" style="fill:url(#Sfumatura_senza_nome_3)"/><path d="M445.9-887.62c21.24-39.62,29.74-124.27,44.38-155.16,62.49,8.22,19.57,154.88,2.2,221.72C476.15-840.71,460.93-863.8,445.9-887.62Zm-24.37-38.81c5.62,7.43,11.29,15.29,16.23,22.86,2.49-10.31,34.81-137,40.49-177,6.93-49-25.79-80.78-44.69-60.15-1.66,36.52-25.75,122.12-39.78,172.84C403.28-954.75,412.46-940.73,421.53-926.43Zm-42-60.15c9.23-28.74,29-114.6,35.08-156.18,7.74-52.79-31.8-60.73-39.53-44.4,0,27.07-24.44,126.79-34.08,165.53C350.33-1017.61,362.76-1007.35,379.57-986.58Z" transform="translate(-222.04 1517.34)" style="fill:url(#Sfumatura_senza_nome_3-2)"/><path d="M780-493.64c-10.31-116-166-222.58-233-250.23S437-872.63,383.71-944.81,315-996.38,308.09-982.63c-12,34.38,53.28,166.72,85.93,228.6-36.09-8.59-72.18-99.69-94.53-165s-5.15-96.25,20.63-98c13.75-25.78,30.94-117.74,30.94-175.32,0-63.61-44.69-54.14-48.13-36.09-1.72,60.16-53.28,168.44-70.47,216.56s-39.53,318,171.88,448.6c130.32,80.52,183.57,112.06,224.57,167.48,25.51,34.49,46.28,78.23,77.93,148.77C753.25-291.69,790.31-377.62,780-493.64Z" transform="translate(-222.04 1517.34)" style="fill:url(#Sfumatura_senza_nome_3-3)"/><path d="M827.71-493.64c10.32-116,166-222.58,233-250.23s110-128.76,163.28-200.94,68.75-51.57,75.63-37.82c12,34.38-53.28,166.72-85.94,228.6,36.09-8.59,72.19-99.69,94.53-165s5.16-96.25-20.62-98c-13.75-25.78-30.94-117.74-30.94-175.32,0-63.61,44.69-54.14,48.12-36.09,1.72,60.16,53.29,168.44,70.47,216.56s39.53,318-171.88,448.6S983.38-430.91,900.87-247C854.47-291.69,817.4-377.62,827.71-493.64Z" transform="translate(-222.04 1517.34)" style="fill:url(#Sfumatura_senza_nome_3-4)"/><polygon points="590.77 0 590.77 295.19 345.68 406.66 590.77 0" style="fill:url(#Sfumatura_senza_nome_3-5)"/><polygon points="590.77 0 835.77 406.66 590.77 295.19 590.77 0" style="fill:url(#Sfumatura_senza_nome_3-6)"/><polygon points="835.97 453.1 590.77 798.39 590.77 597.9 835.97 453.1" style="fill:url(#Sfumatura_senza_nome_3-7)"/><polygon points="345.68 453.1 590.77 597.9 590.77 798.39 345.68 453.1" style="fill:url(#Sfumatura_senza_nome_3-8)"/><polygon points="835.77 406.66 590.77 551.46 590.77 295.19 835.77 406.66" style="fill:url(#Sfumatura_senza_nome_33)"/><g style="clip-path:url(#clip-path)"><g id="_6hJJHq.tif" data-name="6hJJHq.tif"><path d="M1032-1098.95v16.64s-104.3.59-145.81-.27c-9.15-.19-18.21-4.82-30.14-8.22-7.88,30.14-17,65.14-26.17,100.15l-3.84-.21q-16.8-66.8-33.59-133.59l-3.64-.19q-10,48-20,96.08l-4,1.18c-7.85-13.64-16.46-26.94-23.32-41.07-5.26-10.83-12.49-14.17-24.21-14-41.42.62-82.87.68-124.3-.14v-18.74a35.1,35.1,0,0,0,11.52,1.29c34.91-.79,69.86-.28,104.79-.26,19.41,0,41.23-5.6,51.31,21.42Q773.54-1143,786.44-1207l4.08-.58q17.81,70.78,35.62,141.56l4.1.44q11.32-42.75,22.68-85.51l4.05-1.1c5.48,12.63,11.7,25,16.22,38,3.79,10.85,9.9,14.47,21.36,14.23,35.52-.7,71.05-.38,106.59-.22C1013.92-1100.18,1032-1098.95,1032-1098.95Z" transform="translate(-222.04 1517.34)" style="fill:url(#Sfumatura_senza_nome_43)"/></g></g><polygon points="345.68 406.66 590.77 295.19 590.77 551.46 345.68 406.66" style="fill:url(#Sfumatura_senza_nome_33-2)"/><g style="clip-path:url(#clip-path-2)"><g id="_6hJJHq.tif-2" data-name="6hJJHq.tif"><path d="M1032-1098.95v16.64s-104.3.59-145.81-.27c-9.15-.19-18.21-4.82-30.14-8.22-7.88,30.14-17,65.14-26.17,100.15l-3.84-.21q-16.8-66.8-33.59-133.59l-3.64-.19q-10,48-20,96.08l-4,1.18c-7.85-13.64-16.46-26.94-23.32-41.07-5.26-10.83-12.49-14.17-24.21-14-41.42.62-82.87.68-124.3-.14v-18.74a35.1,35.1,0,0,0,11.52,1.29c34.91-.79,69.86-.28,104.79-.26,19.41,0,41.23-5.6,51.31,21.42Q773.54-1143,786.44-1207l4.08-.58q17.81,70.78,35.62,141.56l4.1.44q11.32-42.75,22.68-85.51l4.05-1.1c5.48,12.63,11.7,25,16.22,38,3.79,10.85,9.9,14.47,21.36,14.23,35.52-.7,71.05-.38,106.59-.22C1013.92-1100.18,1032-1098.95,1032-1098.95Z" transform="translate(-222.04 1517.34)" style="fill:url(#Sfumatura_senza_nome_43)"/></g></g></svg>