<?xml version="1.0" encoding="utf-8"?>
<!-- Generator: Adobe Illustrator 26.0.3, SVG Export Plug-In . SVG Version: 6.00 Build 0)  -->
<svg version="1.1" id="Livello_1" xmlns="http://www.w3.org/2000/svg" xmlns:xlink="http://www.w3.org/1999/xlink" x="0px" y="0px"
	 viewBox="0 0 101 101" style="enable-background:new 0 0 101 101;" xml:space="preserve">
<style type="text/css">
	.st0{fill:#3F67AF;}
	.st1{fill:#FFFFFF;}
</style>
<path d="M50.4,54.5c10.1,0,18.2-8.2,18.2-18.2S60.5,18,50.4,18s-18.2,8.2-18.2,18.2S40.3,54.5,50.4,54.5z M50.4,22.8
	c7.4,0,13.4,6,13.4,13.4s-6,13.4-13.4,13.4S37,43.7,37,36.3S43,22.8,50.4,22.8z M18.8,83h63.4c1.3,0,2.4-1.1,2.4-2.4
	c0-12.6-10.3-22.9-22.9-22.9H39.3c-12.6,0-22.9,10.3-22.9,22.9C16.4,81.9,17.5,83,18.8,83z M39.3,62.5h22.4
	c9.2,0,16.7,6.8,17.9,15.7H21.4C22.6,69.3,30.1,62.5,39.3,62.5z"/>
<g>
	<path class="st0" d="M64.6,91.5c-1.3,0-2.6-0.4-3.6-1.3L42.4,74.7l3.3-2.7c0.7-0.6,1.7-0.9,2.7-0.9s2,0.3,2.7,1l13.2,11L76.1,69
		l6.7-8c0.8-0.9,1.9-1.4,3.2-1.4c0.8,0,1.5,0.2,2.2,0.6l3.7,2.2l-23,27.4C67.8,90.8,66.3,91.5,64.6,91.5L64.6,91.5z"/>
	<path class="st1" d="M86,61.5c0.4,0,0.8,0.1,1.1,0.3l1.6,1l-7.9,9.4L67.4,88.2l-0.1,0.1c-0.6,0.8-1.7,1.2-2.7,1.2
		c-0.8,0-1.7-0.3-2.3-0.8l-0.1-0.1L45.5,74.7l1.4-1.2c0.4-0.3,0.9-0.5,1.4-0.5c0.5,0,1,0.2,1.4,0.5l13.5,11.2
		c0.3,0.3,0.7,0.4,1.1,0.4c0.5,0,1-0.2,1.3-0.5l12-14.3l6.7-8C84.7,61.8,85.3,61.5,86,61.5 M86,57.5c-1.8,0-3.6,0.8-4.7,2.1l-6.7,8
		L64,80.2l-11.7-9.7c-1.1-0.9-2.5-1.4-4-1.4c-1.5,0-2.9,0.5-4,1.4l-1.4,1.2l-3.7,3.1l3.7,3.1l16.7,13.9l0.1,0.1
		c1.3,1.1,3.1,1.7,4.9,1.7c2.3,0,4.4-0.9,5.7-2.6l0.1-0.1l13.5-16.1l7.9-9.4l3.1-3.6l-4.1-2.4l-1.6-1C88.2,57.8,87.1,57.5,86,57.5
		L86,57.5z"/>
</g>
</svg>
